<svg width="332" height="44" viewBox="0 0 332 44" fill="none" xmlns="http://www.w3.org/2000/svg">
<path d="M2.232 35V9.8H14.364C16.716 9.8 18.744 10.184 20.448 10.952C22.176 11.72 23.508 12.824 24.444 14.264C25.38 15.68 25.848 17.36 25.848 19.304C25.848 21.248 25.38 22.928 24.444 24.344C23.508 25.76 22.176 26.864 20.448 27.656C18.744 28.424 16.716 28.808 14.364 28.808H6.948L10.728 25.172V35H2.232ZM10.728 26.108L6.948 22.256H13.824C15 22.256 15.864 21.992 16.416 21.464C16.992 20.936 17.28 20.216 17.28 19.304C17.28 18.392 16.992 17.672 16.416 17.144C15.864 16.616 15 16.352 13.824 16.352H6.948L10.728 12.5V26.108ZM41.591 35.576C39.551 35.576 37.655 35.252 35.903 34.604C34.175 33.956 32.675 33.044 31.403 31.868C30.131 30.668 29.135 29.264 28.415 27.656C27.719 26.048 27.371 24.296 27.371 22.4C27.371 20.48 27.719 18.728 28.415 17.144C29.135 15.536 30.131 14.144 31.403 12.968C32.675 11.768 34.175 10.844 35.903 10.196C37.655 9.548 39.551 9.224 41.591 9.224C43.655 9.224 45.551 9.548 47.279 10.196C49.007 10.844 50.507 11.768 51.779 12.968C53.051 14.144 54.035 15.536 54.731 17.144C55.451 18.728 55.811 20.48 55.811 22.4C55.811 24.296 55.451 26.048 54.731 27.656C54.035 29.264 53.051 30.668 51.779 31.868C50.507 33.044 49.007 33.956 47.279 34.604C45.551 35.252 43.655 35.576 41.591 35.576ZM41.591 28.7C42.383 28.7 43.115 28.556 43.787 28.268C44.483 27.98 45.083 27.572 45.587 27.044C46.115 26.492 46.523 25.832 46.811 25.064C47.099 24.272 47.243 23.384 47.243 22.4C47.243 21.416 47.099 20.54 46.811 19.772C46.523 18.98 46.115 18.32 45.587 17.792C45.083 17.24 44.483 16.82 43.787 16.532C43.115 16.244 42.383 16.1 41.591 16.1C40.799 16.1 40.055 16.244 39.359 16.532C38.687 16.82 38.087 17.24 37.559 17.792C37.055 18.32 36.659 18.98 36.371 19.772C36.083 20.54 35.939 21.416 35.939 22.4C35.939 23.384 36.083 24.272 36.371 25.064C36.659 25.832 37.055 26.492 37.559 27.044C38.087 27.572 38.687 27.98 39.359 28.268C40.055 28.556 40.799 28.7 41.591 28.7ZM71.5407 35.576C69.5247 35.576 67.6527 35.264 65.9247 34.64C64.2207 33.992 62.7327 33.08 61.4607 31.904C60.2127 30.728 59.2407 29.336 58.5447 27.728C57.8487 26.12 57.5007 24.344 57.5007 22.4C57.5007 20.456 57.8487 18.68 58.5447 17.072C59.2407 15.464 60.2127 14.072 61.4607 12.896C62.7327 11.72 64.2207 10.82 65.9247 10.196C67.6527 9.548 69.5247 9.224 71.5407 9.224C74.0127 9.224 76.1967 9.656 78.0927 10.52C80.0127 11.384 81.5967 12.632 82.8447 14.264L77.4807 19.052C76.7367 18.116 75.9087 17.396 74.9967 16.892C74.1087 16.364 73.1007 16.1 71.9727 16.1C71.0847 16.1 70.2807 16.244 69.5607 16.532C68.8407 16.82 68.2167 17.24 67.6887 17.792C67.1847 18.344 66.7887 19.016 66.5007 19.808C66.2127 20.576 66.0687 21.44 66.0687 22.4C66.0687 23.36 66.2127 24.236 66.5007 25.028C66.7887 25.796 67.1847 26.456 67.6887 27.008C68.2167 27.56 68.8407 27.98 69.5607 28.268C70.2807 28.556 71.0847 28.7 71.9727 28.7C73.1007 28.7 74.1087 28.448 74.9967 27.944C75.9087 27.416 76.7367 26.684 77.4807 25.748L82.8447 30.536C81.5967 32.144 80.0127 33.392 78.0927 34.28C76.1967 35.144 74.0127 35.576 71.5407 35.576ZM90.9599 35V14.552L92.7959 16.388H83.5799V9.8H106.692V16.388H97.4759L99.3119 14.552V35H90.9599ZM117.27 19.16H128.502V25.28H117.27V19.16ZM117.846 28.592H130.446V35H109.494V9.8H129.978V16.208H117.846V28.592ZM132.132 9.764H141.852L145.524 15.704L149.196 9.764H159.024L150.852 21.788L159.78 35H149.772L145.524 28.484L141.348 35H131.592L140.448 22.184L132.132 9.764ZM174.025 35.576C171.985 35.576 170.089 35.252 168.337 34.604C166.609 33.956 165.109 33.044 163.837 31.868C162.565 30.668 161.569 29.264 160.849 27.656C160.153 26.048 159.805 24.296 159.805 22.4C159.805 20.48 160.153 18.728 160.849 17.144C161.569 15.536 162.565 14.144 163.837 12.968C165.109 11.768 166.609 10.844 168.337 10.196C170.089 9.548 171.985 9.224 174.025 9.224C176.089 9.224 177.985 9.548 179.713 10.196C181.441 10.844 182.941 11.768 184.213 12.968C185.485 14.144 186.469 15.536 187.165 17.144C187.885 18.728 188.245 20.48 188.245 22.4C188.245 24.296 187.885 26.048 187.165 27.656C186.469 29.264 185.485 30.668 184.213 31.868C182.941 33.044 181.441 33.956 179.713 34.604C177.985 35.252 176.089 35.576 174.025 35.576ZM174.025 28.7C174.817 28.7 175.549 28.556 176.221 28.268C176.917 27.98 177.517 27.572 178.021 27.044C178.549 26.492 178.957 25.832 179.245 25.064C179.533 24.272 179.677 23.384 179.677 22.4C179.677 21.416 179.533 20.54 179.245 19.772C178.957 18.98 178.549 18.32 178.021 17.792C177.517 17.24 176.917 16.82 176.221 16.532C175.549 16.244 174.817 16.1 174.025 16.1C173.233 16.1 172.489 16.244 171.793 16.532C171.121 16.82 170.521 17.24 169.993 17.792C169.489 18.32 169.093 18.98 168.805 19.772C168.517 20.54 168.373 21.416 168.373 22.4C168.373 23.384 168.517 24.272 168.805 25.064C169.093 25.832 169.489 26.492 169.993 27.044C170.521 27.572 171.121 27.98 171.793 28.268C172.489 28.556 173.233 28.7 174.025 28.7ZM188.804 9.764H198.524L202.196 15.704L205.868 9.764H215.696L207.524 21.788L216.452 35H206.444L202.196 28.484L198.02 35H188.264L197.12 22.184L188.804 9.764ZM218.056 35V9.8H230.188C232.54 9.8 234.568 10.184 236.272 10.952C238 11.72 239.332 12.824 240.268 14.264C241.204 15.68 241.672 17.36 241.672 19.304C241.672 21.248 241.204 22.928 240.268 24.344C239.332 25.76 238 26.864 236.272 27.656C234.568 28.424 232.54 28.808 230.188 28.808H222.772L226.552 25.172V35H218.056ZM226.552 26.108L222.772 22.256H229.648C230.824 22.256 231.688 21.992 232.24 21.464C232.816 20.936 233.104 20.216 233.104 19.304C233.104 18.392 232.816 17.672 232.24 17.144C231.688 16.616 230.824 16.352 229.648 16.352H222.772L226.552 12.5V26.108ZM240.858 35L251.874 9.8H260.226L271.242 35H262.458L254.322 13.832H257.634L249.498 35H240.858ZM247.41 30.608L249.57 24.488H261.162L263.322 30.608H247.41ZM289.912 9.8H298.408V35H289.912V9.8ZM282.064 35H273.568V9.8H282.064V35ZM290.488 25.712H281.488V18.728H290.488V25.712ZM300.764 35L311.78 9.8H320.132L331.148 35H322.364L314.228 13.832H317.54L309.404 35H300.764ZM307.316 30.608L309.476 24.488H321.068L323.228 30.608H307.316Z" fill="#0D0D0D"/>
</svg>
