<svg width="17" height="18" viewBox="0 0 17 18" fill="none" xmlns="http://www.w3.org/2000/svg">
<path d="M15.2728 11.9647C14.4146 11.8506 13.5624 11.6889 12.7197 11.4802C12.5139 11.4061 12.2939 11.3905 12.0809 11.4348C11.8679 11.4792 11.6692 11.582 11.5039 11.7334C11.2891 11.9691 10.669 12.6283 10.0247 13.3093C7.71596 12.0868 5.84884 10.0741 4.71568 7.58628C5.34384 6.89219 5.93148 6.22866 6.17058 5.9973C6.31108 5.81925 6.40654 5.60516 6.44772 5.37573C6.4889 5.14631 6.4744 4.90932 6.40564 4.68769C6.2116 3.77851 6.06145 2.8591 5.95579 1.93316C5.94447 1.81525 5.91098 1.70106 5.85736 1.59754C5.80373 1.49403 5.7311 1.40336 5.64389 1.33107C5.55667 1.25877 5.45671 1.20637 5.35008 1.17704C5.24345 1.14772 5.1324 1.14209 5.02368 1.1605H1.57082C1.4283 1.17436 1.29488 1.24193 1.19406 1.35133C1.09324 1.46073 1.03148 1.60493 1.01966 1.75855C0.796764 5.1155 2.53535 8.70818 2.88793 9.3979V9.42409L2.93657 9.5245C4.1987 11.8824 6.016 13.8399 8.20502 15.1994V15.1994L8.38333 15.3086C9.19386 15.7713 12.4157 17.5174 15.4268 17.2774C15.5709 17.2666 15.7067 17.2009 15.8099 17.0922C15.9131 16.9834 15.977 16.8386 15.9902 16.6837V12.9688C16.0073 12.8517 16.002 12.732 15.9748 12.6172C15.9476 12.5023 15.8989 12.3946 15.8318 12.3007C15.7647 12.2068 15.6805 12.1285 15.5844 12.0708C15.4883 12.013 15.3823 11.9769 15.2728 11.9647Z" stroke="#434C5E" stroke-linecap="round" stroke-linejoin="round"/>
</svg>
