<svg width="20" height="18" viewBox="0 0 20 18" fill="none" xmlns="http://www.w3.org/2000/svg">
<path d="M18.1892 1C18.7439 1 19.1623 1.51552 18.9385 2.47439L16.2235 16.0326C16.0337 16.9966 15.4839 17.2286 14.7249 16.7801L8.24867 11.7125C8.22356 11.6934 8.2031 11.6683 8.18898 11.6392C8.17487 11.61 8.16751 11.5777 8.16751 11.545C8.16751 11.5122 8.17487 11.48 8.18898 11.4508C8.2031 11.4217 8.22356 11.3965 8.24867 11.3774L15.7272 4.22201C16.0678 3.90239 15.6542 3.74773 15.2066 4.03642L5.82071 10.3103C5.79225 10.33 5.75993 10.3425 5.72621 10.347C5.69249 10.3515 5.65825 10.3477 5.62609 10.3361L1.64112 9.00089C0.755573 8.72767 0.755573 8.08326 1.84061 7.62445L17.7853 1.10826C17.9118 1.04398 18.0491 1.00718 18.1892 1Z" stroke="#434C5E" stroke-linecap="round" stroke-linejoin="round"/>
</svg>
